<svg width="32" height="32" viewBox="0 0 32 32" fill="none" xmlns="http://www.w3.org/2000/svg">
<path d="M16 2.66667C14.6431 2.66451 13.2939 2.87138 12 3.28C14.7072 4.13078 17.0724 5.8231 18.7515 8.11081C20.4305 10.3985 21.3359 13.1622 21.3359 16C21.3359 18.8378 20.4305 21.6015 18.7515 23.8892C17.0724 26.1769 14.7072 27.8692 12 28.72C13.8334 29.2962 15.7697 29.4692 17.6762 29.2272C19.5828 28.9852 21.4144 28.334 23.0458 27.3181C24.6771 26.3021 26.0696 24.9456 27.1277 23.3413C28.1859 21.737 28.8847 19.9229 29.1763 18.0234C29.468 16.1238 29.3455 14.1837 28.8174 12.3358C28.2893 10.488 27.3679 8.7762 26.1165 7.31768C24.865 5.85916 23.3131 4.6884 21.567 3.88563C19.8208 3.08286 17.9218 2.66704 16 2.66667Z" fill="#0EA5E9"/>
</svg>
