<svg width="32" height="32" viewBox="0 0 33 32" fill="none" xmlns="http://www.w3.org/2000/svg">
<path d="M16.5 6.66667C16.1223 6.66667 15.8058 6.53867 15.5507 6.28267C15.2956 6.02667 15.1676 5.71022 15.1667 5.33333V2.66667C15.1667 2.28889 15.2947 1.97245 15.5507 1.71733C15.8067 1.46222 16.1232 1.33422 16.5 1.33333C16.8778 1.33333 17.1947 1.46133 17.4507 1.71733C17.7067 1.97333 17.8343 2.28978 17.8334 2.66667V5.33333C17.8334 5.71111 17.7054 6.028 17.4494 6.284C17.1934 6.54 16.8769 6.66756 16.5 6.66667ZM23.1 9.4C22.8556 9.15556 22.7334 8.85022 22.7334 8.484C22.7334 8.11778 22.8556 7.80089 23.1 7.53333L24.9667 5.63333C25.2334 5.36667 25.5498 5.23333 25.916 5.23333C26.2823 5.23333 26.5991 5.36667 26.8667 5.63333C27.1112 5.87778 27.2334 6.18889 27.2334 6.56667C27.2334 6.94445 27.1112 7.25556 26.8667 7.5L24.9667 9.4C24.7223 9.64444 24.4111 9.76667 24.0334 9.76667C23.6556 9.76667 23.3445 9.64444 23.1 9.4ZM27.1667 17.3333C26.7889 17.3333 26.4725 17.2053 26.2174 16.9493C25.9623 16.6933 25.8343 16.3769 25.8334 16C25.8334 15.6222 25.9614 15.3058 26.2174 15.0507C26.4734 14.7956 26.7898 14.6676 27.1667 14.6667H29.8334C30.2111 14.6667 30.528 14.7947 30.784 15.0507C31.04 15.3067 31.1676 15.6231 31.1667 16C31.1667 16.3778 31.0387 16.6947 30.7827 16.9507C30.5267 17.2067 30.2103 17.3342 29.8334 17.3333H27.1667ZM16.5 30.6667C16.1223 30.6667 15.8058 30.5387 15.5507 30.2827C15.2956 30.0267 15.1676 29.7102 15.1667 29.3333V26.6667C15.1667 26.2889 15.2947 25.9724 15.5507 25.7173C15.8067 25.4622 16.1232 25.3342 16.5 25.3333C16.8778 25.3333 17.1947 25.4613 17.4507 25.7173C17.7067 25.9733 17.8343 26.2898 17.8334 26.6667V29.3333C17.8334 29.7111 17.7054 30.028 17.4494 30.284C17.1934 30.54 16.8769 30.6676 16.5 30.6667ZM8.03337 9.4L6.13337 7.53333C5.86671 7.26667 5.73337 6.94445 5.73337 6.56667C5.73337 6.18889 5.86671 5.87778 6.13337 5.63333C6.37782 5.38889 6.68893 5.26667 7.06671 5.26667C7.44449 5.26667 7.7556 5.38889 8.00004 5.63333L9.90004 7.53333C10.1445 7.77778 10.2667 8.08889 10.2667 8.46667C10.2667 8.84444 10.1445 9.15556 9.90004 9.4C9.63337 9.64444 9.32226 9.76667 8.96671 9.76667C8.61115 9.76667 8.30004 9.64444 8.03337 9.4ZM24.9667 26.3667L23.1 24.4667C22.8556 24.2 22.7334 23.8836 22.7334 23.5173C22.7334 23.1511 22.8556 22.8453 23.1 22.6C23.3445 22.3556 23.6503 22.2333 24.0174 22.2333C24.3845 22.2333 24.7009 22.3556 24.9667 22.6L26.8667 24.4667C27.1334 24.7111 27.2614 25.0222 27.2507 25.4C27.24 25.7778 27.112 26.1 26.8667 26.3667C26.6 26.6333 26.2778 26.7667 25.9 26.7667C25.5223 26.7667 25.2112 26.6333 24.9667 26.3667ZM3.16671 17.3333C2.78893 17.3333 2.47249 17.2053 2.21737 16.9493C1.96226 16.6933 1.83426 16.3769 1.83337 16C1.83337 15.6222 1.96137 15.3058 2.21737 15.0507C2.47337 14.7956 2.78982 14.6676 3.16671 14.6667H5.83337C6.21115 14.6667 6.52804 14.7947 6.78404 15.0507C7.04004 15.3067 7.1676 15.6231 7.16671 16C7.16671 16.3778 7.03871 16.6947 6.78271 16.9507C6.52671 17.2067 6.21026 17.3342 5.83337 17.3333H3.16671ZM6.13337 26.3667C5.88893 26.1222 5.76671 25.8111 5.76671 25.4333C5.76671 25.0556 5.88893 24.7444 6.13337 24.5L8.03337 22.6C8.27782 22.3556 8.58315 22.2333 8.94937 22.2333C9.3156 22.2333 9.63248 22.3556 9.90004 22.6C10.1667 22.8667 10.3 23.1836 10.3 23.5507C10.3 23.9178 10.1667 24.2342 9.90004 24.5L8.03337 26.3667C7.76671 26.6333 7.44449 26.7667 7.06671 26.7667C6.68893 26.7667 6.37782 26.6333 6.13337 26.3667ZM16.5 24C14.2778 24 12.3889 23.2222 10.8334 21.6667C9.27782 20.1111 8.50004 18.2222 8.50004 16C8.50004 13.7778 9.27782 11.8889 10.8334 10.3333C12.3889 8.77778 14.2778 8 16.5 8C18.7223 8 20.6112 8.77778 22.1667 10.3333C23.7223 11.8889 24.5 13.7778 24.5 16C24.5 18.2222 23.7223 20.1111 22.1667 21.6667C20.6112 23.2222 18.7223 24 16.5 24Z" fill="#0EA5E9"/>
</svg>
