<svg width="32" height="32" viewBox="0 0 32 32" fill="none" xmlns="http://www.w3.org/2000/svg">
<path d="M28.1599 13.1733C28.1041 12.9962 27.9994 12.8384 27.8579 12.7181C27.7163 12.5978 27.5437 12.5199 27.3599 12.4933L20.1332 11.44L16.8932 4.89333C16.801 4.73863 16.6702 4.61053 16.5136 4.52157C16.357 4.4326 16.18 4.38583 15.9999 4.38583C15.8198 4.38583 15.6428 4.4326 15.4862 4.52157C15.3296 4.61053 15.1988 4.73863 15.1066 4.89333L11.8666 11.44L4.6399 12.4933C4.45607 12.5199 4.28347 12.5978 4.14194 12.7181C4.00042 12.8384 3.89573 12.9962 3.8399 13.1733C3.78031 13.3498 3.7712 13.5395 3.81361 13.7209C3.85601 13.9023 3.94824 14.0682 4.0799 14.2L9.33324 19.2933L8.09324 26.4933C8.06181 26.6787 8.08258 26.8692 8.15322 27.0434C8.22386 27.2177 8.34159 27.3688 8.49324 27.48C8.64513 27.5882 8.82426 27.6518 9.01039 27.6636C9.19653 27.6754 9.38225 27.6349 9.54657 27.5467L15.9999 24.1467L22.4666 27.5467C22.6096 27.6251 22.7701 27.6664 22.9332 27.6667C23.143 27.6643 23.3473 27.5993 23.5199 27.48C23.6716 27.3688 23.7893 27.2177 23.8599 27.0434C23.9306 26.8692 23.9513 26.6787 23.9199 26.4933L22.6666 19.2933L27.9066 14.2C28.0405 14.0696 28.1353 13.9044 28.18 13.7229C28.2248 13.5414 28.2178 13.351 28.1599 13.1733Z" fill="#0369A1"/>
</svg>
