<svg width="25" height="24" viewBox="0 0 25 24" fill="none" xmlns="http://www.w3.org/2000/svg">
<path d="M18.5 2.475C16.7375 1.3875 14.7125 0.75 12.5 0.75V2.475H18.5Z" fill="#ED4C5C"/>
<path d="M12.5 4.2H20.6C19.9625 3.5625 19.25 2.9625 18.5 2.475H12.5V4.2Z" fill="white"/>
<path d="M12.5 5.925H21.9875C21.575 5.2875 21.125 4.725 20.6375 4.2H12.5V5.925Z" fill="#ED4C5C"/>
<path d="M12.5 7.65H22.8875C22.625 7.05 22.325 6.45 21.9875 5.925H12.5V7.65Z" fill="white"/>
<path d="M12.5 9.375H23.45C23.3 8.775 23.1125 8.2125 22.8875 7.65H12.5V9.375Z" fill="#ED4C5C"/>
<path d="M12.5 11.1375H23.7125C23.675 10.5375 23.5625 9.975 23.45 9.4125H12.5V11.1375Z" fill="white"/>
<path d="M23.7125 11.1375H12.5V12H1.25C1.25 12.3 1.25 12.5625 1.2875 12.8625H23.7125C23.75 12.5625 23.75 12.3 23.75 12C23.75 11.7 23.75 11.4 23.7125 11.1375Z" fill="#ED4C5C"/>
<path d="M1.54998 14.5875H23.45C23.6 14.025 23.675 13.4625 23.7125 12.8625H1.28748C1.32498 13.425 1.39998 14.025 1.54998 14.5875Z" fill="white"/>
<path d="M2.11255 16.3125H22.8876C23.1126 15.75 23.3001 15.1875 23.4501 14.5875H1.55005C1.70005 15.1875 1.88755 15.75 2.11255 16.3125Z" fill="#ED4C5C"/>
<path d="M3.01255 18.0375H21.9876C22.3251 17.475 22.6251 16.9125 22.8876 16.3125H2.11255C2.37505 16.9125 2.67505 17.475 3.01255 18.0375Z" fill="white"/>
<path d="M4.36245 19.7625H20.6374C21.125 19.2375 21.6124 18.6375 21.9874 18.0375H3.01245C3.38745 18.675 3.87495 19.2375 4.36245 19.7625Z" fill="#ED4C5C"/>
<path d="M6.46255 21.4875H18.5375C19.325 21 20.0001 20.4 20.6376 19.7625H4.36255C5.00005 20.4375 5.71255 21 6.46255 21.4875Z" fill="white"/>
<path d="M12.5 23.25C14.7125 23.25 16.775 22.6125 18.5375 21.4875H6.46252C8.22502 22.6125 10.2875 23.25 12.5 23.25Z" fill="#ED4C5C"/>
<path d="M6.5 2.475C5.7125 2.9625 5 3.5625 4.3625 4.2C3.8375 4.725 3.3875 5.325 3.0125 5.925C2.675 6.4875 2.3375 7.05 2.1125 7.65C1.8875 8.2125 1.7 8.775 1.55 9.375C1.4 9.9375 1.325 10.5 1.2875 11.1C1.25 11.4 1.25 11.7 1.25 12H12.5V0.75C10.2875 0.75 8.2625 1.3875 6.5 2.475Z" fill="#428BC1"/>
<path d="M9.87502 1.125L10.0625 1.6875H10.625L10.175 2.0625L10.325 2.625L9.87502 2.2875L9.42502 2.625L9.57502 2.0625L9.12502 1.6875H9.68752L9.87502 1.125ZM11.375 3.375L11.5625 3.9375H12.125L11.675 4.3125L11.825 4.875L11.375 4.5375L10.925 4.875L11.075 4.3125L10.625 3.9375H11.1875L11.375 3.375ZM8.37502 3.375L8.56252 3.9375H9.12502L8.67502 4.3125L8.82502 4.875L8.37502 4.5375L7.92502 4.875L8.07502 4.3125L7.62502 3.9375H8.18752L8.37502 3.375ZM9.87502 5.625L10.0625 6.1875H10.625L10.175 6.5625L10.325 7.125L9.87502 6.7875L9.42502 7.125L9.57502 6.5625L9.12502 6.1875H9.68752L9.87502 5.625ZM6.87502 5.625L7.06252 6.1875H7.62502L7.17502 6.5625L7.32502 7.125L6.87502 6.7875L6.42502 7.125L6.57502 6.5625L6.12502 6.1875H6.68752L6.87502 5.625ZM3.87502 5.625L4.06252 6.1875H4.62502L4.17502 6.5625L4.32502 7.125L3.87502 6.7875L3.42502 7.125L3.57502 6.5625L3.12502 6.1875H3.68752L3.87502 5.625ZM11.375 7.875L11.5625 8.4375H12.125L11.675 8.8125L11.825 9.375L11.375 9.0375L10.925 9.375L11.075 8.8125L10.625 8.4375H11.1875L11.375 7.875ZM8.37502 7.875L8.56252 8.4375H9.12502L8.67502 8.8125L8.82502 9.375L8.37502 9.0375L7.92502 9.375L8.07502 8.8125L7.62502 8.4375H8.18752L8.37502 7.875ZM5.37502 7.875L5.56252 8.4375H6.12502L5.67502 8.8125L5.82502 9.375L5.37502 9.0375L4.92502 9.375L5.07502 8.8125L4.62502 8.4375H5.18752L5.37502 7.875ZM9.87502 10.125L10.0625 10.6875H10.625L10.175 11.0625L10.325 11.625L9.87502 11.2875L9.42502 11.625L9.57502 11.0625L9.12502 10.6875H9.68752L9.87502 10.125ZM6.87502 10.125L7.06252 10.6875H7.62502L7.17502 11.0625L7.32502 11.625L6.87502 11.2875L6.42502 11.625L6.57502 11.0625L6.12502 10.6875H6.68752L6.87502 10.125ZM3.87502 10.125L4.06252 10.6875H4.62502L4.17502 11.0625L4.32502 11.625L3.87502 11.2875L3.42502 11.625L3.57502 11.0625L3.12502 10.6875H3.68752L3.87502 10.125ZM4.92502 4.875L5.37502 4.5375L5.82502 4.875L5.63752 4.3125L6.08752 3.9375H5.52502L5.37502 3.375L5.18752 3.9375H4.66252L5.11252 4.275L4.92502 4.875ZM1.92502 9.375L2.37502 9.0375L2.82502 9.375L2.63752 8.8125L3.08752 8.4375H2.56252L2.37502 7.875L2.18752 8.4375H1.81252C1.81252 8.475 1.77502 8.5125 1.77502 8.55L2.07502 8.775L1.92502 9.375Z" fill="white"/>
</svg>
